<svg id="ART" xmlns="http://www.w3.org/2000/svg" xmlns:xlink="http://www.w3.org/1999/xlink" viewBox="0 0 48 48"><defs><style>.cls-1{fill:url(#linear-gradient);}.cls-2{fill:url(#linear-gradient-2);}.cls-3{fill:url(#linear-gradient-3);}.cls-4{fill:url(#linear-gradient-4);}.cls-5{fill:url(#linear-gradient-5);}.cls-6{fill:url(#linear-gradient-6);}.cls-7{fill:url(#linear-gradient-7);}.cls-8{fill:url(#linear-gradient-8);}.cls-9{fill:url(#linear-gradient-9);}.cls-10{fill:url(#linear-gradient-10);}.cls-11{fill:url(#linear-gradient-11);}.cls-12{fill:url(#linear-gradient-12);}.cls-13{fill:url(#linear-gradient-13);}</style><linearGradient id="linear-gradient" x1="-1067.78" y1="46.67" x2="-1063.63" y2="37.11" gradientTransform="matrix(-1, 0, 0, 1, -1026, 0)" gradientUnits="userSpaceOnUse"><stop offset="0" stop-color="#273a9b"/><stop offset="0.56" stop-color="#202f65"/><stop offset="1" stop-color="#021e2f"/></linearGradient><linearGradient id="linear-gradient-2" x1="-1059.75" y1="59.73" x2="-1059.75" y2="9.8" gradientTransform="matrix(1, 0, 0, -1, 1093.5, 66.38)" xlink:href="#linear-gradient"/><linearGradient id="linear-gradient-3" x1="8.58" y1="41.9" x2="15.77" y2="25.34" gradientUnits="userSpaceOnUse"><stop offset="0" stop-color="#27e9de"/><stop offset="0.52" stop-color="#03a4ec"/><stop offset="1" stop-color="#2547a8"/></linearGradient><linearGradient id="linear-gradient-4" x1="22.5" y1="64.53" x2="22.5" y2="-22" xlink:href="#linear-gradient-3"/><linearGradient id="linear-gradient-5" x1="25.91" y1="42.31" x2="25.91" y2="13.75" xlink:href="#linear-gradient-3"/><linearGradient id="linear-gradient-6" x1="32.25" y1="42.83" x2="32.25" y2="16.87" xlink:href="#linear-gradient-3"/><linearGradient id="linear-gradient-7" x1="19.09" y1="44" x2="19.09" y2="1.4" xlink:href="#linear-gradient-3"/><linearGradient id="linear-gradient-8" x1="25.91" y1="44" x2="25.91" y2="1.4" xlink:href="#linear-gradient-3"/><linearGradient id="linear-gradient-9" x1="19.09" y1="42.31" x2="19.09" y2="13.75" xlink:href="#linear-gradient-3"/><linearGradient id="linear-gradient-10" x1="19.09" y1="10.1" x2="19.09" y2="-4.13" gradientUnits="userSpaceOnUse"><stop offset="0" stop-color="#fff"/><stop offset="0.52" stop-color="#cce2e6"/><stop offset="1" stop-color="#8fa1bb"/></linearGradient><linearGradient id="linear-gradient-11" x1="25.91" y1="10.1" x2="25.91" y2="-4.13" xlink:href="#linear-gradient-10"/><linearGradient id="linear-gradient-12" x1="25.91" y1="10.1" x2="25.91" y2="-4.13" xlink:href="#linear-gradient-10"/><linearGradient id="linear-gradient-13" x1="19.09" y1="10.1" x2="19.09" y2="-4.13" xlink:href="#linear-gradient-10"/></defs><title>code, coding, programming, language, communication</title><path class="cls-1" d="M41.54,39.25v4.63a.59.59,0,0,1-1,.42l-4.87-4.87"/><rect class="cls-2" x="22.5" y="24.53" width="22.5" height="17.31" rx="4.72" ry="4.72" transform="translate(67.5 66.38) rotate(180)"/><path class="cls-3" d="M9,29v8a1,1,0,0,0,1.75.73l8.43-8.43"/><rect class="cls-4" x="3" y="3.53" width="39" height="30" rx="8.17" ry="8.17"/><path class="cls-5" d="M24.07,20.38l-.58.58a.47.47,0,0,0-.14.33V26a.47.47,0,0,0,.14.33l.58.58a.47.47,0,0,0,.33.14h3a.47.47,0,0,0,.33-.14l.58-.58a.47.47,0,0,0,.14-.33V21.29a.47.47,0,0,0-.14-.33l-.58-.58a.47.47,0,0,0-.33-.14h-3A.47.47,0,0,0,24.07,20.38Zm2.23,5h-.77a.47.47,0,0,1-.47-.47V22.41a.47.47,0,0,1,.47-.47h.77a.47.47,0,0,1,.47.47v2.48A.47.47,0,0,1,26.3,25.36Z"/><path class="cls-6" d="M42,24.87a4.69,4.69,0,0,0-1.72-.33H27.22a4.72,4.72,0,0,0-4.72,4.72v4.28H33.83A8.17,8.17,0,0,0,42,25.36Z"/><path class="cls-7" d="M17.25,11.85l-.58.58a.47.47,0,0,0-.14.33v4.73a.47.47,0,0,0,.14.33l.58.58a.47.47,0,0,0,.33.14h3a.47.47,0,0,0,.33-.14l.58-.58a.47.47,0,0,0,.14-.33V12.76a.47.47,0,0,0-.14-.33l-.58-.58a.47.47,0,0,0-.33-.14h-3A.47.47,0,0,0,17.25,11.85Zm2.23,5H18.7a.47.47,0,0,1-.47-.47V13.88a.47.47,0,0,1,.47-.47h.77a.47.47,0,0,1,.47.47v2.48A.47.47,0,0,1,19.47,16.83Z"/><path class="cls-8" d="M26.76,16.36v-3.6a.47.47,0,0,0-.14-.33L26,11.85a.47.47,0,0,0-.33-.14h-1.9a.47.47,0,0,0-.47.47v.77a.47.47,0,0,0,.47.47h.77a.47.47,0,0,1,.47.47v2.94H23.82a.47.47,0,0,0-.47.47v.77a.47.47,0,0,0,.47.47H28a.47.47,0,0,0,.47-.47V17.3a.47.47,0,0,0-.47-.47h-.77A.47.47,0,0,1,26.76,16.36Z"/><path class="cls-9" d="M19.94,24.89v-3.6A.47.47,0,0,0,19.8,21l-.58-.58a.47.47,0,0,0-.33-.14H17a.47.47,0,0,0-.47.47v.77a.47.47,0,0,0,.47.47h.77a.47.47,0,0,1,.47.47v2.94H17a.47.47,0,0,0-.47.47v.77a.47.47,0,0,0,.47.47h4.18a.47.47,0,0,0,.47-.47v-.77a.47.47,0,0,0-.47-.47h-.77A.47.47,0,0,1,19.94,24.89Z"/><path class="cls-10" d="M17.25,11l-.58.58a.47.47,0,0,0-.14.33v4.73a.47.47,0,0,0,.14.33l.58.58a.47.47,0,0,0,.33.14h3a.47.47,0,0,0,.33-.14l.58-.58a.47.47,0,0,0,.14-.33V11.9a.47.47,0,0,0-.14-.33L20.93,11a.47.47,0,0,0-.33-.14h-3A.47.47,0,0,0,17.25,11Zm2.23,5H18.7a.47.47,0,0,1-.47-.47V13a.47.47,0,0,1,.47-.47h.77a.47.47,0,0,1,.47.47v2.48A.47.47,0,0,1,19.47,16Z"/><path class="cls-11" d="M24.07,19.52l-.58.58a.47.47,0,0,0-.14.33v4.73a.47.47,0,0,0,.14.33l.58.58a.47.47,0,0,0,.33.14h3a.47.47,0,0,0,.33-.14l.58-.58a.47.47,0,0,0,.14-.33V20.43a.47.47,0,0,0-.14-.33l-.58-.58a.47.47,0,0,0-.33-.14h-3A.47.47,0,0,0,24.07,19.52Zm2.23,5h-.77a.47.47,0,0,1-.47-.47V21.56a.47.47,0,0,1,.47-.47h.77a.47.47,0,0,1,.47.47V24A.47.47,0,0,1,26.3,24.5Z"/><path class="cls-12" d="M26.76,15.51V11.9a.47.47,0,0,0-.14-.33L26,11a.47.47,0,0,0-.33-.14h-1.9a.47.47,0,0,0-.47.47v.77a.47.47,0,0,0,.47.47h.77a.47.47,0,0,1,.47.47V16H23.82a.47.47,0,0,0-.47.47v.77a.47.47,0,0,0,.47.47H28a.47.47,0,0,0,.47-.47v-.77A.47.47,0,0,0,28,16h-.77A.47.47,0,0,1,26.76,15.51Z"/><path class="cls-13" d="M19.94,24v-3.6a.47.47,0,0,0-.14-.33l-.58-.58a.47.47,0,0,0-.33-.14H17a.47.47,0,0,0-.47.47v.77a.47.47,0,0,0,.47.47h.77a.47.47,0,0,1,.47.47V24.5H17a.47.47,0,0,0-.47.47v.77a.47.47,0,0,0,.47.47h4.18a.47.47,0,0,0,.47-.47V25a.47.47,0,0,0-.47-.47h-.77A.47.47,0,0,1,19.94,24Z"/></svg>