<svg id="ART" xmlns="http://www.w3.org/2000/svg" xmlns:xlink="http://www.w3.org/1999/xlink" viewBox="0 0 48 48"><defs><style>.cls-1{fill:url(#linear-gradient);}.cls-2{fill:url(#linear-gradient-2);}.cls-3{fill:url(#linear-gradient-3);}.cls-4{fill:url(#linear-gradient-6);}.cls-5{fill:url(#linear-gradient-7);}</style><linearGradient id="linear-gradient" x1="24" y1="79.75" x2="24" y2="-16.63" gradientUnits="userSpaceOnUse"><stop offset="0" stop-color="#f3c57a"/><stop offset="0.49" stop-color="#f39369"/><stop offset="1" stop-color="#e94867"/></linearGradient><linearGradient id="linear-gradient-2" x1="18" y1="71.5" x2="18" y2="8.99" xlink:href="#linear-gradient"/><linearGradient id="linear-gradient-3" x1="30" y1="71.5" x2="30" y2="8.99" xlink:href="#linear-gradient"/><linearGradient id="linear-gradient-6" x1="18" y1="9.17" x2="18" y2="-15.87" gradientUnits="userSpaceOnUse"><stop offset="0" stop-color="#fff"/><stop offset="0.52" stop-color="#cce2e6"/><stop offset="1" stop-color="#8fa1bb"/></linearGradient><linearGradient id="linear-gradient-7" x1="30" y1="9.17" x2="30" y2="-15.87" xlink:href="#linear-gradient-6"/></defs><title>digital, code, coding, programming</title><rect class="cls-1" x="3" y="3" width="42" height="42" rx="6.95" ry="6.95"/><path class="cls-2" d="M14.76,12.24l-1,1a.82.82,0,0,0-.24.58v8.32a.82.82,0,0,0,.24.58l1,1a.82.82,0,0,0,.58.24h5.32a.82.82,0,0,0,.58-.24l1-1a.82.82,0,0,0,.24-.58V13.84a.82.82,0,0,0-.24-.58l-1-1a.82.82,0,0,0-.58-.24H15.34A.82.82,0,0,0,14.76,12.24ZM18.68,21H17.32a.82.82,0,0,1-.82-.82V15.82a.82.82,0,0,1,.82-.82h1.35a.82.82,0,0,1,.82.82v4.35A.82.82,0,0,1,18.68,21Z"/><path class="cls-3" d="M26.76,27.24l-1,1a.82.82,0,0,0-.24.58v8.32a.82.82,0,0,0,.24.58l1,1a.82.82,0,0,0,.58.24h5.32a.82.82,0,0,0,.58-.24l1-1a.82.82,0,0,0,.24-.58V28.84a.82.82,0,0,0-.24-.58l-1-1a.82.82,0,0,0-.58-.24H27.34A.82.82,0,0,0,26.76,27.24ZM30.68,36H29.32a.82.82,0,0,1-.82-.82V30.82a.82.82,0,0,1,.82-.82h1.35a.82.82,0,0,1,.82.82v4.35A.82.82,0,0,1,30.68,36Z"/><path class="cls-3" d="M31.5,20.18V13.84a.82.82,0,0,0-.24-.58l-1-1a.82.82,0,0,0-.58-.24H26.32a.82.82,0,0,0-.82.82v1.35a.82.82,0,0,0,.82.82h1.35a.82.82,0,0,1,.82.82V21H26.32a.82.82,0,0,0-.82.82v1.35a.82.82,0,0,0,.82.82h7.35a.82.82,0,0,0,.82-.82V21.82a.82.82,0,0,0-.82-.82H32.32A.82.82,0,0,1,31.5,20.18Z"/><path class="cls-2" d="M19.5,35.18V28.84a.82.82,0,0,0-.24-.58l-1-1a.82.82,0,0,0-.58-.24H14.32a.82.82,0,0,0-.82.82v1.35a.82.82,0,0,0,.82.82h1.35a.82.82,0,0,1,.82.82V36H14.32a.82.82,0,0,0-.82.82v1.35a.82.82,0,0,0,.82.82h7.35a.82.82,0,0,0,.82-.82V36.82a.82.82,0,0,0-.82-.82H20.32A.82.82,0,0,1,19.5,35.18Z"/><path class="cls-4" d="M14.76,10.74l-1,1a.82.82,0,0,0-.24.58v8.32a.82.82,0,0,0,.24.58l1,1a.82.82,0,0,0,.58.24h5.32a.82.82,0,0,0,.58-.24l1-1a.82.82,0,0,0,.24-.58V12.34a.82.82,0,0,0-.24-.58l-1-1a.82.82,0,0,0-.58-.24H15.34A.82.82,0,0,0,14.76,10.74Zm3.92,8.76H17.32a.82.82,0,0,1-.82-.82V14.32a.82.82,0,0,1,.82-.82h1.35a.82.82,0,0,1,.82.82v4.35A.82.82,0,0,1,18.68,19.5Z"/><path class="cls-5" d="M26.76,25.74l-1,1a.82.82,0,0,0-.24.58v8.32a.82.82,0,0,0,.24.58l1,1a.82.82,0,0,0,.58.24h5.32a.82.82,0,0,0,.58-.24l1-1a.82.82,0,0,0,.24-.58V27.34a.82.82,0,0,0-.24-.58l-1-1a.82.82,0,0,0-.58-.24H27.34A.82.82,0,0,0,26.76,25.74Zm3.92,8.76H29.32a.82.82,0,0,1-.82-.82V29.32a.82.82,0,0,1,.82-.82h1.35a.82.82,0,0,1,.82.82v4.35A.82.82,0,0,1,30.68,34.5Z"/><path class="cls-5" d="M31.5,18.68V12.34a.82.82,0,0,0-.24-.58l-1-1a.82.82,0,0,0-.58-.24H26.32a.82.82,0,0,0-.82.82v1.35a.82.82,0,0,0,.82.82h1.35a.82.82,0,0,1,.82.82V19.5H26.32a.82.82,0,0,0-.82.82v1.35a.82.82,0,0,0,.82.82h7.35a.82.82,0,0,0,.82-.82V20.32a.82.82,0,0,0-.82-.82H32.32A.82.82,0,0,1,31.5,18.68Z"/><path class="cls-4" d="M19.5,33.68V27.34a.82.82,0,0,0-.24-.58l-1-1a.82.82,0,0,0-.58-.24H14.32a.82.82,0,0,0-.82.82v1.35a.82.82,0,0,0,.82.82h1.35a.82.82,0,0,1,.82.82V34.5H14.32a.82.82,0,0,0-.82.82v1.35a.82.82,0,0,0,.82.82h7.35a.82.82,0,0,0,.82-.82V35.32a.82.82,0,0,0-.82-.82H20.32A.82.82,0,0,1,19.5,33.68Z"/></svg>