<?xml version="1.0" standalone="no"?>
<!DOCTYPE svg PUBLIC "-//W3C//DTD SVG 20010904//EN"
 "http://www.w3.org/TR/2001/REC-SVG-20010904/DTD/svg10.dtd">
<svg version="1.0" xmlns="http://www.w3.org/2000/svg"
 width="700.000000pt" height="700.000000pt" viewBox="0 0 700.000000 700.000000"
 preserveAspectRatio="xMidYMid meet">
<metadata>
Created by potrace 1.14, written by Peter Selinger 2001-2017
</metadata>
<g transform="translate(0.000000,700.000000) scale(0.100000,-0.100000)"
fill="#000000" stroke="none">
<path d="M1420 6562 c-291 -21 -508 -117 -693 -305 -161 -164 -255 -363 -283
-597 -8 -77 -9 -4279 0 -4330 3 -19 8 -46 11 -60 2 -14 7 -38 11 -55 8 -42 42
-139 68 -194 117 -252 339 -447 608 -535 83 -27 127 -35 248 -44 47 -4 1021
-6 2165 -6 1562 1 2096 4 2142 13 35 7 73 14 86 16 192 36 443 197 563 360 16
22 35 46 42 54 7 7 37 63 67 125 56 115 89 223 101 336 9 85 9 4225 0 4309
-44 403 -300 725 -683 860 -155 55 -102 53 -2338 55 -1144 0 -2096 0 -2115 -2z"/>
</g>
</svg>
